# xmcd
#
# Track frame offsets:
#       150
#       8984
#       23961
#       34046
#       42430
#       54665
#       64096
#       73493
#       85973
#       99235
#       107687
#       126801
#       134077
#       146235
#       163975
#       172613
#       183360
#       192452
#       199788
#       207580
#
# Disc length: 2919 seconds
#
# Revision: 1
# Processed by: cddbd v1.5.1PL0 Copyright (c) Steve Scherf et al.
# Submitted via: MusiCat 1.1
#
DISCID=310b6514
DTITLE=The Joslin Grove Choral Society - 20 Best of Hymns and Praise
DYEAR=2004
DGENRE=
TTITLE0=Amazing Grace 
TTITLE1=Blessed Assurance 
TTITLE2=Great Is Thy Faithfulness 
TTITLE3=Rock of Ages 
TTITLE4=Savior Like a Shepherd He Leads Us
TTITLE5=Love Divine
TTITLE6=Love Lifted Me
TTITLE7=The Lord Is My Shepherd, I'll Not Want
TTITLE8=Trust and Obey
TTITLE9=Wonderful Words of Life
TTITLE10=There Is a Name I Love to Hear
TTITLE11=Blessed Redeemer
TTITLE12=Whiter Than Snow
TTITLE13=What a Friend We Have in Jesus 
TTITLE14=Come Ye Sinners Poor and Needy
TTITLE15=O Perfect Love
TTITLE16=O Love That Will Not Let Me Go
TTITLE17=Revive Us Again
TTITLE18=Since Jesus Came into My Heart 
TTITLE19=Jesus Paid It All
EXTD=\n527\n
EXTT0=
EXTT1=
EXTT2=
EXTT3=
EXTT4=
EXTT5=
EXTT6=
EXTT7=
EXTT8=
EXTT9=
EXTT10=
EXTT11=
EXTT12=
EXTT13=
EXTT14=
EXTT15=
EXTT16=
EXTT17=
EXTT18=
EXTT19=
PLAYORDER=
